<svg width="315" height="315" viewBox="0 0 315 315" fill="none" xmlns="http://www.w3.org/2000/svg">
<path fill-rule="evenodd" clip-rule="evenodd" d="M166.974 8.47053C165.677 -2.82351 149.273 -2.82351 147.976 8.47054C146.835 18.4101 133.125 20.142 129.548 10.7986C125.483 0.18196 109.594 4.26143 111.146 15.5233C112.512 25.4345 99.6646 30.5213 93.8757 22.3612C87.298 13.089 72.9232 20.9917 77.2274 31.5136C81.0155 40.7737 69.8363 48.8958 62.2 42.4317C53.5231 35.0867 41.5652 46.3159 48.3509 55.4369C54.3228 63.464 45.5147 74.1111 36.5108 69.7491C26.2798 64.7927 17.4902 78.643 26.331 85.7899C34.1115 92.0797 28.228 104.583 18.4222 102.597C7.28004 100.341 2.21097 115.942 12.5514 120.665C21.6517 124.823 19.0624 138.396 9.07081 138.911C-2.28242 139.497 -3.31243 155.868 7.87789 157.872C17.7262 159.636 18.5938 173.427 9.0442 176.41C-1.80673 179.801 1.26704 195.914 12.6041 195.072C22.5815 194.331 26.8516 207.473 18.3441 212.738C8.67724 218.72 15.6617 233.563 26.4332 229.928C35.9128 226.729 43.317 238.396 36.3861 245.611C28.5108 253.81 38.967 266.449 48.496 260.25C56.8823 254.794 66.9553 264.253 62.0366 272.965C56.4476 282.865 69.7186 292.507 77.4065 284.132C84.1724 276.762 96.2814 283.419 93.6838 293.081C90.7323 304.059 105.984 310.098 111.348 300.074C116.068 291.253 129.452 294.69 129.339 304.694C129.211 316.061 145.485 318.117 148.188 307.075C150.566 297.357 164.384 297.357 166.763 307.075C169.465 318.117 185.74 316.061 185.611 304.694C185.498 294.69 198.882 291.253 203.603 300.074C208.966 310.098 224.218 304.059 221.267 293.081C218.669 283.419 230.778 276.762 237.544 284.132C245.232 292.507 258.503 282.865 252.914 272.965C247.995 264.253 258.068 254.794 266.454 260.25C275.984 266.449 286.44 253.81 278.564 245.611C271.634 238.396 279.038 226.729 288.517 229.928C299.289 233.563 306.273 218.72 296.606 212.738C288.099 207.473 292.369 194.331 302.346 195.072C313.683 195.914 316.757 179.801 305.906 176.41C296.357 173.427 297.224 159.636 307.073 157.872C318.263 155.868 317.233 139.497 305.88 138.911C295.888 138.396 293.299 124.823 302.399 120.665C312.74 115.942 307.671 100.341 296.528 102.597C286.722 104.583 280.839 92.0797 288.62 85.7899C297.46 78.643 288.671 64.7927 278.44 69.7491C269.436 74.1111 260.628 63.464 266.6 55.4369C273.385 46.3159 261.427 35.0867 252.75 42.4317C245.114 48.8959 233.935 40.7737 237.723 31.5136C242.027 20.9917 227.652 13.089 221.075 22.3612C215.286 30.5213 202.438 25.4345 203.804 15.5233C205.357 4.26145 189.468 0.181967 185.403 10.7986C181.825 20.142 168.116 18.4101 166.974 8.47053ZM156.975 256.766C211.375 256.766 255.475 212.666 255.475 158.266C255.475 103.866 211.375 59.7661 156.975 59.7661C102.575 59.7661 58.4753 103.866 58.4753 158.266C58.4753 212.666 102.575 256.766 156.975 256.766Z" fill="url(#paint0_linear)"/>
<defs>
<linearGradient id="paint0_linear" x1="157.475" y1="0" x2="157.475" y2="314.37" gradientUnits="userSpaceOnUse">
<stop stop-color="#FF616A"/>
<stop offset="1" stop-color="#FF61E6"/>
</linearGradient>
</defs>
</svg>
