<svg width="152" height="148" viewBox="0 0 152 148" fill="none" xmlns="http://www.w3.org/2000/svg">
<g clip-path="url(#clip0)">
<path d="M75.7316 0C33.9117 0 0 33.9256 0 75.7766C0 109.257 21.6994 137.661 51.7899 147.681C55.5747 148.382 56.9643 146.037 56.9643 144.036C56.9643 142.229 56.894 136.259 56.8614 129.928C35.7928 134.511 31.3471 120.987 31.3471 120.987C27.9021 112.228 22.9384 109.899 22.9384 109.899C16.0673 105.196 23.4564 105.293 23.4564 105.293C31.0612 105.827 35.0654 113.102 35.0654 113.102C41.8199 124.686 52.7819 121.337 57.1035 119.401C57.7832 114.503 59.7458 111.16 61.9116 109.268C45.0906 107.352 27.408 100.854 27.408 71.8189C27.408 63.5458 30.3664 56.786 35.2109 51.4794C34.4246 49.5708 31.8324 41.8636 35.9446 31.4259C35.9446 31.4259 42.304 29.3894 56.7761 39.1933C62.8171 37.5144 69.2957 36.6724 75.7316 36.6435C82.1676 36.6724 88.6512 37.5144 94.7034 39.1933C109.158 29.3894 115.509 31.4259 115.509 31.4259C119.631 41.8636 117.037 49.5708 116.251 51.4794C121.107 56.786 124.045 63.5458 124.045 71.8189C124.045 100.923 106.329 107.332 89.4651 109.208C92.1814 111.559 94.6018 116.171 94.6018 123.241C94.6018 133.38 94.514 141.54 94.514 144.036C94.514 146.052 95.8772 148.415 99.716 147.671C129.79 137.64 151.462 109.245 151.462 75.7766C151.462 33.9256 117.555 0 75.7316 0ZM28.364 107.945C28.1972 108.322 27.6052 108.435 27.066 108.176C26.5167 107.929 26.2082 107.416 26.3863 107.038C26.5493 106.65 27.1425 106.542 27.6905 106.802C28.2411 107.049 28.5546 107.568 28.364 107.945ZM32.0891 111.271C31.7279 111.606 31.0219 111.451 30.5428 110.921C30.0475 110.393 29.9547 109.686 30.3209 109.346C30.6933 109.011 31.378 109.168 31.8747 109.696C32.37 110.231 32.4666 110.932 32.0891 111.271ZM34.6447 115.527C34.1807 115.849 33.422 115.547 32.9529 114.873C32.4889 114.199 32.4889 113.391 32.963 113.067C33.4333 112.743 34.1807 113.035 34.656 113.703C35.1188 114.388 35.1187 115.197 34.6447 115.527ZM38.9668 120.455C38.5517 120.913 37.6675 120.79 37.0204 120.165C36.3583 119.554 36.1739 118.687 36.5903 118.229C37.0104 117.77 37.8995 117.899 38.5517 118.519C39.2088 119.129 39.4095 120.002 38.9668 120.455ZM44.5526 122.119C44.3695 122.712 43.518 122.982 42.6602 122.73C41.8037 122.47 41.2431 121.775 41.4161 121.175C41.5942 120.578 42.4495 120.297 43.3136 120.566C44.1689 120.825 44.7307 121.515 44.5526 122.119ZM50.9095 122.824C50.9309 123.449 50.2035 123.968 49.3031 123.979C48.3976 123.999 47.6652 123.493 47.6552 122.878C47.6552 122.247 48.3663 121.734 49.2717 121.719C50.1721 121.701 50.9095 122.203 50.9095 122.824ZM57.1545 122.585C57.2624 123.195 56.6366 123.821 55.7424 123.988C54.8633 124.148 54.0494 123.772 53.9378 123.167C53.8287 122.542 54.4658 121.916 55.3436 121.754C56.239 121.599 57.0404 121.965 57.1545 122.585Z" fill="white"/>
</g>
<defs>
<clipPath id="clip0">
<rect width="151.462" height="148" fill="white"/>
</clipPath>
</defs>
</svg>
