<svg width="150" height="148" viewBox="0 0 150 148" fill="none" xmlns="http://www.w3.org/2000/svg">
<path d="M74.8725 0C54.5401 0 51.9884 0.0878764 44.0027 0.447085C36.0325 0.807835 30.5922 2.05504 25.832 3.885C20.908 5.77508 16.7311 8.30342 12.5697 12.4181C8.4053 16.5313 5.84737 20.6599 3.92892 25.5254C2.07286 30.2321 0.809491 35.611 0.450757 43.4858C0.0935822 51.3791 0 53.9028 0 74C0 94.0972 0.0904649 96.6116 0.452319 104.505C0.818851 112.383 2.08066 117.76 3.93048 122.465C5.84425 127.332 8.40218 131.461 12.5651 135.574C16.7248 139.69 20.9017 142.225 25.8226 144.115C30.586 145.945 36.0278 147.192 43.9964 147.553C51.9822 147.912 54.5323 148 74.8632 148C95.1972 148 97.7411 147.912 105.727 147.553C113.697 147.192 119.143 145.945 123.907 144.115C128.829 142.225 133 139.69 137.16 135.574C141.324 131.461 143.882 127.332 145.801 122.467C147.641 117.76 148.904 112.381 149.279 104.507C149.637 96.6132 149.731 94.0972 149.731 74C149.731 53.9028 149.637 51.3807 149.279 43.4873C148.904 35.6094 147.641 30.2321 145.801 25.5269C143.882 20.6599 141.324 16.5313 137.16 12.4181C132.995 8.30188 128.831 5.77354 123.902 3.885C119.129 2.05504 113.686 0.807835 105.716 0.447085C97.7301 0.0878764 95.1878 0 74.8491 0H74.8725ZM68.1564 13.3354C70.1497 13.3323 72.3738 13.3354 74.8725 13.3354C94.8618 13.3354 97.231 13.4063 105.125 13.7609C112.424 14.0908 116.386 15.2964 119.025 16.3093C122.519 17.6505 125.01 19.2539 127.628 21.8439C130.249 24.4339 131.871 26.9005 133.231 30.3539C134.256 32.9593 135.477 36.8751 135.809 44.0901C136.168 51.891 136.246 54.2343 136.246 73.983C136.246 93.7318 136.168 96.0751 135.809 103.876C135.475 111.091 134.256 115.007 133.231 117.612C131.874 121.066 130.249 123.524 127.628 126.113C125.008 128.703 122.52 130.306 119.025 131.648C116.389 132.665 112.424 133.868 105.125 134.197C97.2326 134.552 94.8618 134.629 74.8725 134.629C54.8817 134.629 52.5125 134.552 44.6203 134.197C37.3208 133.864 33.3592 132.659 30.7186 131.646C27.2248 130.305 24.7293 128.701 22.1089 126.111C19.4886 123.521 17.8665 121.061 16.5065 117.606C15.4817 115.001 14.2605 111.085 13.9282 103.87C13.5695 96.069 13.4978 93.7256 13.4978 73.9645C13.4978 54.2035 13.5695 51.8725 13.9282 44.0716C14.262 36.8566 15.4817 32.9408 16.5065 30.3323C17.8634 26.879 19.4886 24.4123 22.1089 21.8223C24.7293 19.2323 27.2248 17.629 30.7186 16.2846C33.3576 15.2671 37.3208 14.0646 44.6203 13.7332C51.5267 13.4248 54.2032 13.3323 68.1564 13.3169V13.3354ZM114.836 25.6225C109.876 25.6225 105.852 29.5954 105.852 34.4994C105.852 39.4019 109.876 43.3794 114.836 43.3794C119.795 43.3794 123.819 39.4019 123.819 34.4994C123.819 29.5969 119.795 25.6194 114.836 25.6194V25.6225ZM74.8725 35.9979C53.6401 35.9979 36.4256 53.0133 36.4256 74C36.4256 94.9867 53.6401 111.994 74.8725 111.994C96.1049 111.994 113.313 94.9867 113.313 74C113.313 53.0133 96.1033 35.9979 74.8709 35.9979H74.8725ZM74.8725 49.3333C88.6541 49.3333 99.8279 60.3763 99.8279 74C99.8279 87.6222 88.6541 98.6667 74.8725 98.6667C61.0893 98.6667 49.9171 87.6222 49.9171 74C49.9171 60.3763 61.0893 49.3333 74.8725 49.3333Z" fill="white"/>
</svg>
