<svg width="157" height="156" viewBox="0 0 157 156" fill="none" xmlns="http://www.w3.org/2000/svg">
<g filter="url(#filter0_d)">
<path d="M130.84 130.106H108.783V95.7631C108.783 87.5737 108.636 77.0315 97.3113 77.0315C85.8231 77.0315 84.0654 85.9541 84.0654 95.1669V130.104H62.0081V59.4808H83.183V69.1322H83.4795C85.5986 65.5299 88.6608 62.5665 92.3399 60.5575C96.019 58.5486 100.177 57.5694 104.372 57.7242C126.728 57.7242 130.85 72.344 130.85 91.3635L130.84 130.106ZM37.1203 49.8272C34.5886 49.8277 32.1137 49.0817 30.0085 47.6838C27.9032 46.2858 26.2624 44.2985 25.2932 41.9733C24.3239 39.6481 24.0699 37.0893 24.5634 34.6206C25.0568 32.1519 26.2755 29.8841 28.0653 28.104C29.8552 26.3239 32.1357 25.1115 34.6186 24.62C37.1015 24.1285 39.6751 24.3801 42.0142 25.3429C44.3533 26.3057 46.3527 27.9364 47.7595 30.029C49.1664 32.1215 49.9176 34.5819 49.9181 37.0988C49.9184 38.7701 49.5875 40.425 48.9445 41.9691C48.3016 43.5132 47.3591 44.9163 46.1707 46.0982C44.9823 47.2801 43.5713 48.2178 42.0184 48.8576C40.4656 49.4974 38.8012 49.8269 37.1203 49.8272ZM48.1488 130.106H26.0687V59.4808H48.1488V130.106ZM141.837 4.01008H14.985C12.1058 3.97778 9.33136 5.08326 7.27157 7.08359C5.21178 9.08393 4.03514 11.8155 4 14.678V141.32C4.03394 144.184 5.20989 146.917 7.2696 148.92C9.32932 150.922 12.1044 152.03 14.985 151.999H141.837C144.723 152.035 147.506 150.931 149.574 148.928C151.642 146.926 152.826 144.189 152.865 141.32V14.6688C152.824 11.8007 151.64 9.06601 149.572 7.06572C147.504 5.06543 144.722 3.96311 141.837 4.00094" fill="#0A66C2"/>
</g>
<defs>
<filter id="filter0_d" x="0" y="0" width="156.865" height="156" filterUnits="userSpaceOnUse" color-interpolation-filters="sRGB">
<feFlood flood-opacity="0" result="BackgroundImageFix"/>
<feColorMatrix in="SourceAlpha" type="matrix" values="0 0 0 0 0 0 0 0 0 0 0 0 0 0 0 0 0 0 127 0" result="hardAlpha"/>
<feOffset/>
<feGaussianBlur stdDeviation="2"/>
<feComposite in2="hardAlpha" operator="out"/>
<feColorMatrix type="matrix" values="0 0 0 0 0 0 0 0 0 0 0 0 0 0 0 0 0 0 0.25 0"/>
<feBlend mode="normal" in2="BackgroundImageFix" result="effect1_dropShadow"/>
<feBlend mode="normal" in="SourceGraphic" in2="effect1_dropShadow" result="shape"/>
</filter>
</defs>
</svg>
