<svg width="132" height="94" viewBox="0 0 132 94" fill="none" xmlns="http://www.w3.org/2000/svg">
<path d="M121.656 0.209045H9.35819C6.87624 0.209045 4.49595 1.19499 2.74095 2.94999C0.985949 4.70499 0 7.08529 0 9.56723V84.4327C0 86.9147 0.985949 89.295 2.74095 91.05C4.49595 92.805 6.87624 93.7909 9.35819 93.7909H121.656C124.138 93.7909 126.519 92.805 128.274 91.05C130.029 89.295 131.015 86.9147 131.015 84.4327V9.56723C131.015 7.08529 130.029 4.70499 128.274 2.94999C126.519 1.19499 124.138 0.209045 121.656 0.209045ZM111.362 9.56723L65.5073 41.2915L19.6522 9.56723H111.362ZM9.35819 84.4327V13.8252L62.8402 50.8368C63.6235 51.3802 64.554 51.6714 65.5073 51.6714C66.4606 51.6714 67.3911 51.3802 68.1744 50.8368L121.656 13.8252V84.4327H9.35819Z" fill="white"/>
</svg>
